FILE djoilersmonsterbash.bin BINARY TRACK 01 AUDIO TITLE 01 crypto stego constaint pain INDEX 01 00:00:00 TRACK 02 AUDIO TITLE 02 breakpoint dancing INDEX 01 03:16:52 TRACK 03 AUDIO TITLE 03 meltdown INDEX 01 06:11:20 TRACK 04 AUDIO TITLE 04 overflow my buffer INDEX 01 09:22:26 TRACK 05 AUDIO TITLE 05 pop my stack INDEX 01 12:04:47 TRACK 06 AUDIO TITLE 06 hardware problem INDEX 01 14:29:47 TRACK 07 AUDIO TITLE 07 oct31 INDEX 01 17:57:39 TRACK 08 AUDIO TITLE 08 catch my exception INDEX 01 21:01:69 TRACK 09 AUDIO TITLE 09 hackers assemble INDEX 01 23:44:68 TRACK 10 AUDIO TITLE 10 DrCiRCUiT and the Stack Tracers CTF Blues(2) INDEX 01 27:53:68 